<?xml version="1.0" standalone="yes"?>
<svg xmlns="http://www.w3.org/2000/svg" width="415" height="139">
<path style="fill:#ffffff; stroke:none;" d="M0 0L0 48L1 48C2.94128 24.2325 26.2174 2.03691 50 1C37.1103 -4.40869 14.0494 0 0 0z"/>
<path style="fill:#db2d2d; stroke:none;" d="M50 0.428238C33.472 2.79605 18.4882 10.8043 9.10417 25C-10.8363 55.1647 2.88877 99.5475 38 110.784C47.913 113.956 57.801 114.295 68 112.704C126.72 103.54 126.876 15.5401 71 1.89815C64.1657 0.229568 56.9947 -0.573822 50 0.428238z"/>
<path style="fill:#ffffff; stroke:none;" d="M63 0L63 1C74.1319 1.48535 84.5114 6.6245 92.9992 13.6157C100.154 19.5091 105.713 27.4073 109.177 36C112.354 43.8789 113.096 51.5865 112.996 60C112.343 114.895 38.3302 130.901 9.35957 88C4.94014 81.4554 1.64717 73.9128 1 66L0 66L0 139L415 139L415 0L63 0z"/>
<path style="fill:#ee9a9a; stroke:none;" d="M34.6667 23.3333L35.3333 23.6667L34.6667 23.3333z"/>
<path style="fill:#ffffff; stroke:none;" d="M76 66C89.1634 59.7191 93.6496 40.0756 82.787 29.213C74.1629 20.5888 59.0434 23 48 23C43.8015 23 38.0004 22.0685 34.2284 24.3179C29.7729 26.975 31.0913 33.03 36.044 33.8519C46.8868 35.6511 74.9411 27.5957 77.142 44C79.9924 65.2463 44.0206 51.1919 34.2284 57.179C28.8538 60.4651 31 71.6678 31 77C31 80.9484 30.1444 86.1828 31.7423 89.8912C33.6504 94.3196 39.513 94.4204 41.3966 89.8912C43.7368 84.2638 38.5969 71.8454 44.3179 68.0278C46.4402 66.6116 49.5852 67.0048 52 67C55.1358 66.9938 59.0422 66.4518 61.8958 68.0278C70.6369 72.8552 69.6305 88.3325 78.213 92.6381C82.3279 94.7025 86.0039 91.1455 85.7284 86.9961C85.2765 80.1889 79.3813 71.7932 76 66z"/>
<path style="fill:#ee9a9a; stroke:none;" d="M70 23L70 24L73 24L70 23z"/>
<path style="fill:#e56464; stroke:none;" d="M73 23L74 24L73 23z"/>
<path style="fill:#ee9a9a; stroke:none;" d="M75 24L76 25L75 24z"/>
<path style="fill:#e56464; stroke:none;" d="M76 24L77 25L76 24z"/>
<path style="fill:#ee9a9a; stroke:none;" d="M77 25L78 26L77 25z"/>
<path style="fill:#e56464; stroke:none;" d="M78 25L79 26L78 25z"/>
<path style="fill:#ee9a9a; stroke:none;" d="M31 26L32 27L31 26M79 26L80 27L79 26z"/>
<path style="fill:#e56464; stroke:none;" d="M81 27L82 28L81 27z"/>
<path style="fill:#ee9a9a; stroke:none;" d="M82 28L83 29L82 28z"/>
<path style="fill:#e56464; stroke:none;" d="M83 29L84 30L83 29M84 30L85 31L84 30z"/>
<path style="fill:#ee9a9a; stroke:none;" d="M31 31L32 32L31 31z"/>
<path style="fill:#e56464; stroke:none;" d="M31 32L32 33L31 32z"/>
<path style="fill:#ee9a9a; stroke:none;" d="M85 32L86 33L85 32z"/>
<path style="fill:#e56464; stroke:none;" d="M32 33L33 34L32 33M86 33L87 34L86 33z"/>
<path style="fill:#ee9a9a; stroke:none;" d="M34 34L34 35L69 35L34 34M86 34L87 35L86 34z"/>
<path style="fill:#010101; stroke:none;" d="M223 34L223 79L230 79L230 52L258 80L258 35L251 35L251 62L223 34M380 67L373 71C378.796 82.0722 402.214 84.9241 403.89 69C405.448 54.2124 390.095 57.4581 384.971 48.0656C381.271 41.2833 392.914 42.2412 396 46L403 43C397.918 31.5496 377.508 30.0087 376.112 45C374.787 59.227 392.521 55.9399 395.387 66.7137C397.859 76.0049 382.708 70.4265 380 67z"/>
<path style="fill:#ee9a9a; stroke:none;" d="M71 35L72 36L71 35z"/>
<path style="fill:#e56464; stroke:none;" d="M87 35L88 36L87 35z"/>
<path style="fill:#010101; stroke:none;" d="M136 35L136 79L143 79L143 62C155.107 63.8838 154.882 78.9891 169 79L158 61C166.655 56.2637 167.836 42.7108 158.957 37.2284C152.646 33.332 143.106 35 136 35M181 35L181 79L207 79L207 72L188 72L188 60L205 60L205 53L188 53L188 42L207 42L207 35L181 35M275 35L275 79L301 79L301 72L282 72L282 60L299 60L299 53L282 53L282 42L301 42L301 35L275 35M313 35L327 80L329 80L339 55C342.817 62.1592 344.916 75.7164 352 80L365 35C353.374 35.0412 350.881 50.9131 350 61L349 61C347.39 54.0451 344.317 40.8226 338 37L330 61L329 61L322 35L313 35z"/>
<path style="fill:#ee9a9a; stroke:none;" d="M73 36L74 37L73 36M87 36L88 37L87 36M74 37L75 38L74 37M75 38L76 39L75 38z"/>
<path style="fill:#e56464; stroke:none;" d="M88 38L89 39L88 38z"/>
<path style="fill:#ee9a9a; stroke:none;" d="M88 39L88 42L89 42L88 39M76 40L77 41L76 40z"/>
<path style="fill:#e56464; stroke:none;" d="M76 41L77 42L76 41z"/>
<path style="fill:#ffffff; stroke:none;" d="M143 42L143 56C160.209 55.9886 160.209 42.0114 143 42z"/>
<path style="fill:#ee9a9a; stroke:none;" d="M77 44L77 47L78 47L77 44M88 48L88 51L89 51L88 48z"/>
<path style="fill:#e56464; stroke:none;" d="M76 49L77 50L76 49z"/>
<path style="fill:#ee9a9a; stroke:none;" d="M76 50L77 51L76 50z"/>
<path style="fill:#e56464; stroke:none;" d="M75 51L76 52L75 51M88 51L89 52L88 51z"/>
<path style="fill:#ee9a9a; stroke:none;" d="M75 52L76 53L75 52M74 53L75 54L74 53M87.3333 53.6667L87.6667 54.3333L87.3333 53.6667z"/>
<path style="fill:#e56464; stroke:none;" d="M72 54L73 55L72 54z"/>
<path style="fill:#ee9a9a; stroke:none;" d="M73 54L74 55L73 54z"/>
<path style="fill:#e56464; stroke:none;" d="M70 55L71 56L70 55z"/>
<path style="fill:#ee9a9a; stroke:none;" d="M71 55L72 56L71 55z"/>
<path style="fill:#e56464; stroke:none;" d="M33 56L34 57L33 56z"/>
<path style="fill:#ee9a9a; stroke:none;" d="M34 56L35 57L34 56M86 56L87 57L86 56M32 57L33 58L32 57z"/>
<path style="fill:#e56464; stroke:none;" d="M31 58L32 59L31 58M85 58L86 59L85 58z"/>
<path style="fill:#ee9a9a; stroke:none;" d="M31 59L32 60L31 59M84 59L85 60L84 59M80 63L81 64L80 63z"/>
<path style="fill:#e56464; stroke:none;" d="M79 64L80 65L79 64z"/>
<path style="fill:#ee9a9a; stroke:none;" d="M77 65L78 66L77 65z"/>
<path style="fill:#e56464; stroke:none;" d="M76 66L77 67L76 66z"/>
<path style="fill:#ee9a9a; stroke:none;" d="M43 67L43 68L63 68L43 67M42 68L42 90L43 90L42 68M77 68L78 69L77 68M64 69L65 70L64 69M78 70L79 71L78 70M65 71L66 72L65 71M79 72L80 73L79 72z"/>
<path style="fill:#e56464; stroke:none;" d="M66 73L67 74L66 73z"/>
<path style="fill:#ee9a9a; stroke:none;" d="M67 74L68 75L67 74M80 74L81 75L80 74z"/>
<path style="fill:#e56464; stroke:none;" d="M67 75L68 76L67 75z"/>
<path style="fill:#ee9a9a; stroke:none;" d="M68 76L69 77L68 76M81 76L82 77L81 76z"/>
<path style="fill:#e56464; stroke:none;" d="M68 77L69 78L68 77z"/>
<path style="fill:#ee9a9a; stroke:none;" d="M69 78L70 79L69 78M82 78L83 79L82 78z"/>
<path style="fill:#e56464; stroke:none;" d="M69 79L70 80L69 79z"/>
<path style="fill:#ee9a9a; stroke:none;" d="M70 80L71 81L70 80M83 80L84 81L83 80z"/>
<path style="fill:#e56464; stroke:none;" d="M70 81L71 82L70 81M84 81L85 82L84 81z"/>
<path style="fill:#ee9a9a; stroke:none;" d="M71 82L72 83L71 82M84 82L85 83L84 82z"/>
<path style="fill:#e56464; stroke:none;" d="M71 83L72 84L71 83M85 83L86 84L85 83z"/>
<path style="fill:#ee9a9a; stroke:none;" d="M72 84L73 85L72 84M85 84L86 85L85 84z"/>
<path style="fill:#e56464; stroke:none;" d="M72 85L73 86L72 85M86 85L87 86L86 85z"/>
<path style="fill:#ee9a9a; stroke:none;" d="M73 86L74 87L73 86M86 86L86 90L87 90L86 86z"/>
<path style="fill:#e56464; stroke:none;" d="M73 87L74 88L73 87z"/>
<path style="fill:#ee9a9a; stroke:none;" d="M74 88L75 89L74 88M31 90L32 91L31 90z"/>
<path style="fill:#e56464; stroke:none;" d="M42 90L43 91L42 90z"/>
<path style="fill:#ee9a9a; stroke:none;" d="M75 90L76 91L75 90z"/>
<path style="fill:#e56464; stroke:none;" d="M86 90L87 91L86 90z"/>
<path style="fill:#ee9a9a; stroke:none;" d="M41 91L42 92L41 91M85 91L86 92L85 91z"/>
<path style="fill:#e56464; stroke:none;" d="M32 92L33 93L32 92z"/>
<path style="fill:#ee9a9a; stroke:none;" d="M40 92L41 93L40 92z"/>
<path style="fill:#e56464; stroke:none;" d="M76 92L77 93L76 92z"/>
<path style="fill:#ee9a9a; stroke:none;" d="M84 92L85 93L84 92M34 93L35 94L34 93M38.6667 93.3333L39.3333 93.6667L38.6667 93.3333M78.6667 93.3333L79.3333 93.6667L78.6667 93.3333M82 93L83 94L82 93z"/>
<path style="fill:#e56464; stroke:none;" d="M83 93L84 94L83 93z"/>
</svg>
